# MagicaVoxel @ Ephtracy

# group
o 

# material
mtllib zombie.mtl
usemtl palette

# normals
vn -1 0 0
vn 1 0 0
vn 0 0 1
vn 0 0 -1
vn 0 -1 0
vn 0 1 0

# texcoords
vt 0.146484 0.5
vt 0.369141 0.5
vt 0.373047 0.5
vt 0.431641 0.5
vt 0.556641 0.5
vt 0.591797 0.5
vt 0.990234 0.5
vt 0.994141 0.5

# verts
v -1.3 1.8 -1.19209e-07
v -1.3 1.8 -0.2
v -1.3 1.9 -1.19209e-07
v -1.3 1.9 -0.1
v -1.3 2 -1.19209e-07
v -1.3 2 -0.1
v -1.3 2.2 -1.19209e-07
v -1.3 2.2 -0.2
v -1.2 1.8 1
v -1.2 1.8 -1.19209e-07
v -1.2 1.9 -1.19209e-07
v -1.2 1.9 -0.1
v -1.2 2 -1.19209e-07
v -1.2 2 -0.1
v -1.2 2.1 1
v -1.2 2.1 -1.19209e-07
v -1.1 2.4 0.3
v -1.1 2.4 -0.7
v -1.1 3.8 0.3
v -1.1 3.8 -0.7
v -1 2.1 -1.19209e-07
v -1 2.1 -0.1
v -1 2.2 -1.19209e-07
v -1 2.2 -0.1
v -1 2.9 0.4
v -1 2.9 0.3
v -1 3.5 0.4
v -1 3.5 0.3
v -0.8 1.1 0.3
v -0.8 1.1 -0.5
v -0.8 1.3 0.3
v -0.8 1.3 -0.5
v -0.8 2.3 0.3
v -0.8 2.3 -0.5
v -0.6 0 0.4
v -0.6 0 -1.19209e-07
v -0.6 0 -0.3
v -0.6 0.1 -1.19209e-07
v -0.6 0.1 -0.1
v -0.6 0.1 -0.3
v -0.6 0.2 0.4
v -0.6 0.2 -1.19209e-07
v -0.6 0.2 -0.1
v -0.6 0.2 -0.3
v -0.6 0.5 -0.1
v -0.6 0.5 -0.3
v -0.6 0.6 -1.19209e-07
v -0.6 0.6 -0.1
v -0.6 1 -1.19209e-07
v -0.6 1 -0.3
v -0.6 3.1 0.3
v -0.6 3.1 0.2
v -0.6 3.3 0.3
v -0.6 3.3 0.2
v -0.5 3 0.4
v -0.5 3 0.3
v -0.5 3.4 0.4
v -0.5 3.4 0.3
v -0.4 0 -0.1
v -0.4 0 -0.2
v -0.4 0.1 -0.1
v -0.4 0.1 -0.2
v -0.4 0.7 -1.19209e-07
v -0.4 0.7 -0.1
v -0.4 0.8 -1.19209e-07
v -0.4 0.8 -0.1
v -0.2 0 0.4
v -0.2 0 -1.19209e-07
v -0.2 0 -0.3
v -0.2 0.1 -1.19209e-07
v -0.2 0.1 -0.1
v -0.2 0.1 -0.3
v -0.2 0.2 0.4
v -0.2 0.2 -1.19209e-07
v -0.2 0.2 -0.1
v -0.2 0.2 -0.3
v -0.2 0.5 -0.1
v -0.2 0.5 -0.3
v -0.2 0.7 -1.19209e-07
v -0.2 0.7 -0.1
v -0.2 1 -1.19209e-07
v -0.2 1 -0.3
v -0.2 2.9 0.4
v -0.2 2.9 0.3
v -0.2 3.5 0.4
v -0.2 3.5 0.3
v 0.1 2.5 0.3
v 0.1 2.5 0.2
v 0.1 2.8 0.3
v 0.1 2.8 0.2
v 0.2 3.1 0.3
v 0.2 3.1 0.2
v 0.2 3.3 0.3
v 0.2 3.3 0.2
v 0.3 3 0.4
v 0.3 3 0.3
v 0.3 3.4 0.4
v 0.3 3.4 0.3
v 0.5 1.8 1
v 0.5 1.8 -1.19209e-07
v 0.5 1.8 -0.2
v 0.5 2.1 1
v 0.5 2.1 -1.19209e-07
v 0.5 2.2 -1.19209e-07
v 0.5 2.2 -0.2
v 0.7 2.1 -1.19209e-07
v 0.7 2.1 -0.1
v 0.7 2.2 -1.19209e-07
v 0.7 2.2 -0.1
v -1.1 2.1 -1.19209e-07
v -1.1 2.1 -0.1
v -1.1 2.2 -1.19209e-07
v -1.1 2.2 -0.1
v -0.9 1.8 1
v -0.9 1.8 -1.19209e-07
v -0.9 1.8 -0.2
v -0.9 2.1 1
v -0.9 2.1 -1.19209e-07
v -0.9 2.2 -1.19209e-07
v -0.9 2.2 -0.2
v -0.9 3 0.4
v -0.9 3 0.3
v -0.9 3.4 0.4
v -0.9 3.4 0.3
v -0.8 3.1 0.3
v -0.8 3.1 0.2
v -0.8 3.3 0.3
v -0.8 3.3 0.2
v -0.7 2.5 0.3
v -0.7 2.5 0.2
v -0.7 2.8 0.3
v -0.7 2.8 0.2
v -0.5 0 -0.1
v -0.5 0 -0.2
v -0.5 0.1 -0.1
v -0.5 0.1 -0.2
v -0.5 0.7 -1.19209e-07
v -0.5 0.7 -0.1
v -0.5 0.8 -1.19209e-07
v -0.5 0.8 -0.1
v -0.4 2.9 0.4
v -0.4 2.9 0.3
v -0.4 3.5 0.4
v -0.4 3.5 0.3
v -0.3 0 0.4
v -0.3 0 -1.19209e-07
v -0.3 0 -0.3
v -0.3 0.1 -1.19209e-07
v -0.3 0.1 -0.1
v -0.3 0.1 -0.3
v -0.3 0.2 0.4
v -0.3 0.2 -1.19209e-07
v -0.3 0.2 -0.1
v -0.3 0.2 -0.3
v -0.3 0.3 -1.19209e-07
v -0.3 0.3 -0.1
v -0.3 0.5 -0.1
v -0.3 0.5 -0.3
v -0.3 0.7 -0.1
v -0.3 0.7 -0.2
v -0.3 0.8 -0.1
v -0.3 0.8 -0.2
v -0.3 1 -1.19209e-07
v -0.3 1 -0.3
v -0.0999999 3 0.4
v -0.0999999 3 0.3
v -0.0999999 3.4 0.4
v -0.0999999 3.4 0.3
v 0 3.1 0.3
v 0 3.1 0.2
v 0 3.3 0.3
v 0 3.3 0.2
v 0.1 0 0.4
v 0.1 0 -0.3
v 0.1 0.2 0.4
v 0.1 0.2 -1.19209e-07
v 0.1 0.2 -0.3
v 0.1 0.3 -0.1
v 0.1 0.3 -0.2
v 0.1 0.4 -0.1
v 0.1 0.4 -0.2
v 0.1 0.4 -0.3
v 0.1 0.5 -0.1
v 0.1 0.5 -0.2
v 0.1 0.6 -1.19209e-07
v 0.1 0.6 -0.1
v 0.1 1 -1.19209e-07
v 0.1 1 -0.3
v 0.3 1.1 0.3
v 0.3 1.1 -0.5
v 0.3 1.3 0.3
v 0.3 1.3 -0.5
v 0.3 2.3 0.3
v 0.3 2.3 -0.5
v 0.4 2.9 0.4
v 0.4 2.9 0.3
v 0.4 3.5 0.4
v 0.4 3.5 0.3
v 0.5 2.4 0.3
v 0.5 2.4 -0.7
v 0.5 3.8 0.3
v 0.5 3.8 -0.7
v 0.6 2.1 -1.19209e-07
v 0.6 2.1 -0.1
v 0.6 2.2 -1.19209e-07
v 0.6 2.2 -0.1
v 0.8 1.8 1
v 0.8 1.8 -1.19209e-07
v 0.8 1.9 -1.19209e-07
v 0.8 1.9 -0.1
v 0.8 2 -1.19209e-07
v 0.8 2 -0.1
v 0.8 2.1 1
v 0.8 2.1 -1.19209e-07
v 0.9 1.8 -1.19209e-07
v 0.9 1.8 -0.2
v 0.9 1.9 -1.19209e-07
v 0.9 1.9 -0.1
v 0.9 2 -1.19209e-07
v 0.9 2 -0.1
v 0.9 2.2 -1.19209e-07
v 0.9 2.2 -0.2
v -1.2 1.8 1
v -1.2 2.1 1
v -0.9 1.8 1
v -0.9 2.1 1
v 0.5 1.8 1
v 0.5 2.1 1
v 0.8 1.8 1
v 0.8 2.1 1
v -1 2.9 0.4
v -1 3.5 0.4
v -0.9 3 0.4
v -0.9 3.4 0.4
v -0.6 0 0.4
v -0.6 0.2 0.4
v -0.5 3 0.4
v -0.5 3.4 0.4
v -0.4 2.9 0.4
v -0.4 3.5 0.4
v -0.3 0 0.4
v -0.3 0.2 0.4
v -0.2 0 0.4
v -0.2 0.2 0.4
v -0.2 2.9 0.4
v -0.2 3.5 0.4
v -0.0999999 3 0.4
v -0.0999999 3.4 0.4
v 0.1 0 0.4
v 0.1 0.2 0.4
v 0.3 3 0.4
v 0.3 3.4 0.4
v 0.4 2.9 0.4
v 0.4 3.5 0.4
v -1.1 2.4 0.3
v -1.1 3.8 0.3
v -1 2.9 0.3
v -1 3.5 0.3
v -0.9 3 0.3
v -0.9 3.4 0.3
v -0.8 1.1 0.3
v -0.8 1.3 0.3
v -0.8 2.3 0.3
v -0.8 3.1 0.3
v -0.8 3.3 0.3
v -0.7 2.5 0.3
v -0.7 2.8 0.3
v -0.6 3.1 0.3
v -0.6 3.3 0.3
v -0.5 3 0.3
v -0.5 3.4 0.3
v -0.4 2.9 0.3
v -0.4 3.5 0.3
v -0.2 2.9 0.3
v -0.2 3.5 0.3
v -0.0999999 3 0.3
v -0.0999999 3.4 0.3
v 0 3.1 0.3
v 0 3.3 0.3
v 0.1 2.5 0.3
v 0.1 2.8 0.3
v 0.2 3.1 0.3
v 0.2 3.3 0.3
v 0.3 1.1 0.3
v 0.3 1.3 0.3
v 0.3 2.3 0.3
v 0.3 3 0.3
v 0.3 3.4 0.3
v 0.4 2.9 0.3
v 0.4 3.5 0.3
v 0.5 2.4 0.3
v 0.5 3.8 0.3
v -0.8 3.1 0.2
v -0.8 3.3 0.2
v -0.7 2.5 0.2
v -0.7 2.8 0.2
v -0.6 3.1 0.2
v -0.6 3.3 0.2
v 0 3.1 0.2
v 0 3.3 0.2
v 0.1 2.5 0.2
v 0.1 2.8 0.2
v 0.2 3.1 0.2
v 0.2 3.3 0.2
v -1.3 1.8 -1.19209e-07
v -1.3 1.9 -1.19209e-07
v -1.3 2 -1.19209e-07
v -1.3 2.2 -1.19209e-07
v -1.2 1.8 -1.19209e-07
v -1.2 1.9 -1.19209e-07
v -1.2 2 -1.19209e-07
v -1.2 2.1 -1.19209e-07
v -1.1 2.1 -1.19209e-07
v -1.1 2.2 -1.19209e-07
v -1 2.1 -1.19209e-07
v -1 2.2 -1.19209e-07
v -0.9 2.1 -1.19209e-07
v -0.9 2.2 -1.19209e-07
v -0.6 0.2 -1.19209e-07
v -0.6 0.6 -1.19209e-07
v -0.6 1 -1.19209e-07
v -0.5 0.4 -1.19209e-07
v -0.5 0.6 -1.19209e-07
v -0.5 0.7 -1.19209e-07
v -0.5 0.8 -1.19209e-07
v -0.4 0.3 -1.19209e-07
v -0.4 0.4 -1.19209e-07
v -0.4 0.7 -1.19209e-07
v -0.4 0.8 -1.19209e-07
v -0.3 0.2 -1.19209e-07
v -0.3 0.3 -1.19209e-07
v -0.3 1 -1.19209e-07
v -0.2 0.2 -1.19209e-07
v -0.2 0.7 -1.19209e-07
v -0.2 1 -1.19209e-07
v -0.0999999 0.4 -1.19209e-07
v -0.0999999 0.7 -1.19209e-07
v 0 0.4 -1.19209e-07
v 0 0.6 -1.19209e-07
v 0.1 0.2 -1.19209e-07
v 0.1 0.6 -1.19209e-07
v 0.1 1 -1.19209e-07
v 0.5 2.1 -1.19209e-07
v 0.5 2.2 -1.19209e-07
v 0.6 2.1 -1.19209e-07
v 0.6 2.2 -1.19209e-07
v 0.7 2.1 -1.19209e-07
v 0.7 2.2 -1.19209e-07
v 0.8 1.8 -1.19209e-07
v 0.8 1.9 -1.19209e-07
v 0.8 2 -1.19209e-07
v 0.8 2.1 -1.19209e-07
v 0.9 1.8 -1.19209e-07
v 0.9 1.9 -1.19209e-07
v 0.9 2 -1.19209e-07
v 0.9 2.2 -1.19209e-07
v -1.3 1.9 -0.1
v -1.3 2 -0.1
v -1.2 1.9 -0.1
v -1.2 2 -0.1
v -1.1 2.1 -0.1
v -1.1 2.2 -0.1
v -1 2.1 -0.1
v -1 2.2 -0.1
v -0.5 0.7 -0.1
v -0.5 0.8 -0.1
v -0.4 0.7 -0.1
v -0.4 0.8 -0.1
v 0.6 2.1 -0.1
v 0.6 2.2 -0.1
v 0.7 2.1 -0.1
v 0.7 2.2 -0.1
v 0.8 1.9 -0.1
v 0.8 2 -0.1
v 0.9 1.9 -0.1
v 0.9 2 -0.1
v -0.5 0 -0.2
v -0.5 0.1 -0.2
v -0.4 0 -0.2
v -0.4 0.1 -0.2
v -0.5 0 -0.1
v -0.5 0.1 -0.1
v -0.4 0 -0.1
v -0.4 0.1 -0.1
v -1.3 1.8 -0.2
v -1.3 2.2 -0.2
v -0.9 1.8 -0.2
v -0.9 2.2 -0.2
v 0.5 1.8 -0.2
v 0.5 2.2 -0.2
v 0.9 1.8 -0.2
v 0.9 2.2 -0.2
v -0.6 0 -0.3
v -0.6 0.1 -0.3
v -0.6 0.2 -0.3
v -0.6 0.5 -0.3
v -0.6 1 -0.3
v -0.3 0 -0.3
v -0.3 0.1 -0.3
v -0.3 0.2 -0.3
v -0.3 0.5 -0.3
v -0.3 1 -0.3
v -0.2 0 -0.3
v -0.2 0.1 -0.3
v -0.2 0.2 -0.3
v -0.2 0.5 -0.3
v -0.2 1 -0.3
v 0 0 -0.3
v 0 0.1 -0.3
v 0 0.4 -0.3
v 0 0.5 -0.3
v 0.1 0 -0.3
v 0.1 0.2 -0.3
v 0.1 0.4 -0.3
v 0.1 1 -0.3
v -0.8 1.1 -0.5
v -0.8 1.3 -0.5
v -0.8 2.3 -0.5
v 0.3 1.1 -0.5
v 0.3 1.3 -0.5
v 0.3 2.3 -0.5
v -1.1 2.4 -0.7
v -1.1 3.8 -0.7
v 0.5 2.4 -0.7
v 0.5 3.8 -0.7
v -0.6 0 0.4
v -0.3 0 0.4
v -0.2 0 0.4
v 0.1 0 0.4
v -0.6 0 -1.19209e-07
v -0.3 0 -1.19209e-07
v -0.2 0 -1.19209e-07
v 0 0 -1.19209e-07
v -0.5 0 -0.1
v -0.4 0 -0.1
v -0.5 0 -0.2
v -0.4 0 -0.2
v -0.6 0 -0.3
v -0.3 0 -0.3
v -0.2 0 -0.3
v 0 0 -0.3
v 0.1 0 -0.3
v -0.5 0.1 -0.1
v -0.4 0.1 -0.1
v -0.5 0.1 -0.2
v -0.4 0.1 -0.2
v -0.5 0.8 -1.19209e-07
v -0.4 0.8 -1.19209e-07
v -0.5 0.8 -0.1
v -0.4 0.8 -0.1
v -0.8 1.1 0.3
v 0.3 1.1 0.3
v -0.8 1.1 -0.5
v 0.3 1.1 -0.5
v -1.2 1.8 1
v -0.9 1.8 1
v 0.5 1.8 1
v 0.8 1.8 1
v -1.3 1.8 -1.19209e-07
v -1.2 1.8 -1.19209e-07
v -0.9 1.8 -1.19209e-07
v 0.5 1.8 -1.19209e-07
v 0.8 1.8 -1.19209e-07
v 0.9 1.8 -1.19209e-07
v -1.3 1.8 -0.2
v -0.9 1.8 -0.2
v 0.5 1.8 -0.2
v 0.9 1.8 -0.2
v -1.3 2 -1.19209e-07
v -1.2 2 -1.19209e-07
v 0.8 2 -1.19209e-07
v 0.9 2 -1.19209e-07
v -1.3 2 -0.1
v -1.2 2 -0.1
v 0.8 2 -0.1
v 0.9 2 -0.1
v -1.1 2.4 0.3
v 0.5 2.4 0.3
v -1.1 2.4 -0.7
v 0.5 2.4 -0.7
v -0.7 2.8 0.3
v 0.1 2.8 0.3
v -0.7 2.8 0.2
v 0.1 2.8 0.2
v -1 2.9 0.4
v -0.4 2.9 0.4
v -0.2 2.9 0.4
v 0.4 2.9 0.4
v -1 2.9 0.3
v -0.4 2.9 0.3
v -0.2 2.9 0.3
v 0.4 2.9 0.3
v -0.8 3.3 0.3
v -0.6 3.3 0.3
v 0 3.3 0.3
v 0.2 3.3 0.3
v -0.8 3.3 0.2
v -0.6 3.3 0.2
v 0 3.3 0.2
v 0.2 3.3 0.2
v -0.9 3.4 0.4
v -0.5 3.4 0.4
v -0.0999999 3.4 0.4
v 0.3 3.4 0.4
v -0.9 3.4 0.3
v -0.5 3.4 0.3
v -0.0999999 3.4 0.3
v 0.3 3.4 0.3
v -0.6 0.2 0.4
v -0.3 0.2 0.4
v -0.2 0.2 0.4
v 0.1 0.2 0.4
v -0.6 0.2 -1.19209e-07
v -0.3 0.2 -1.19209e-07
v -0.2 0.2 -1.19209e-07
v 0.1 0.2 -1.19209e-07
v -0.5 0.7 -1.19209e-07
v -0.4 0.7 -1.19209e-07
v -0.5 0.7 -0.1
v -0.4 0.7 -0.1
v -0.6 1 -1.19209e-07
v -0.3 1 -1.19209e-07
v -0.2 1 -1.19209e-07
v 0.1 1 -1.19209e-07
v -0.6 1 -0.3
v -0.3 1 -0.3
v -0.2 1 -0.3
v 0.1 1 -0.3
v -1.3 1.9 -1.19209e-07
v -1.2 1.9 -1.19209e-07
v 0.8 1.9 -1.19209e-07
v 0.9 1.9 -1.19209e-07
v -1.3 1.9 -0.1
v -1.2 1.9 -0.1
v 0.8 1.9 -0.1
v 0.9 1.9 -0.1
v -1.2 2.1 1
v -0.9 2.1 1
v 0.5 2.1 1
v 0.8 2.1 1
v -1.1 2.1 0.6
v -1 2.1 0.6
v 0.6 2.1 0.6
v 0.7 2.1 0.6
v -1.1 2.1 0.3
v -1 2.1 0.3
v 0.6 2.1 0.3
v 0.7 2.1 0.3
v -1.2 2.1 -1.19209e-07
v -1.1 2.1 -1.19209e-07
v -1 2.1 -1.19209e-07
v -0.9 2.1 -1.19209e-07
v 0.5 2.1 -1.19209e-07
v 0.6 2.1 -1.19209e-07
v 0.7 2.1 -1.19209e-07
v 0.8 2.1 -1.19209e-07
v -1.1 2.1 -0.1
v -1 2.1 -0.1
v 0.6 2.1 -0.1
v 0.7 2.1 -0.1
v -1.3 2.2 -1.19209e-07
v -1.1 2.2 -1.19209e-07
v -1 2.2 -1.19209e-07
v -0.9 2.2 -1.19209e-07
v 0.5 2.2 -1.19209e-07
v 0.6 2.2 -1.19209e-07
v 0.7 2.2 -1.19209e-07
v 0.9 2.2 -1.19209e-07
v -1.1 2.2 -0.1
v -1 2.2 -0.1
v 0.6 2.2 -0.1
v 0.7 2.2 -0.1
v -1.3 2.2 -0.2
v -0.9 2.2 -0.2
v 0.5 2.2 -0.2
v 0.9 2.2 -0.2
v -0.8 2.3 0.3
v 0.3 2.3 0.3
v -0.8 2.3 -0.5
v 0.3 2.3 -0.5
v -0.7 2.5 0.3
v 0.1 2.5 0.3
v -0.7 2.5 0.2
v 0.1 2.5 0.2
v -0.9 3 0.4
v -0.5 3 0.4
v -0.0999999 3 0.4
v 0.3 3 0.4
v -0.9 3 0.3
v -0.5 3 0.3
v -0.0999999 3 0.3
v 0.3 3 0.3
v -0.8 3.1 0.3
v -0.6 3.1 0.3
v 0 3.1 0.3
v 0.2 3.1 0.3
v -0.8 3.1 0.2
v -0.6 3.1 0.2
v 0 3.1 0.2
v 0.2 3.1 0.2
v -1 3.5 0.4
v -0.4 3.5 0.4
v -0.2 3.5 0.4
v 0.4 3.5 0.4
v -1 3.5 0.3
v -0.4 3.5 0.3
v -0.2 3.5 0.3
v 0.4 3.5 0.3
v -1.1 3.8 0.3
v 0.5 3.8 0.3
v -1.1 3.8 -0.7
v 0.5 3.8 -0.7

# faces
f 3/4/1 2/4/1 1/4/1
f 4/4/1 2/4/1 3/4/1
f 6/4/1 2/4/1 4/4/1
f 7/4/1 6/4/1 5/4/1
f 8/4/1 2/4/1 6/4/1
f 8/4/1 6/4/1 7/4/1
f 11/5/1 10/5/1 9/5/1
f 13/5/1 11/5/1 9/5/1
f 13/4/1 12/4/1 11/4/1
f 14/4/1 12/4/1 13/4/1
f 15/5/1 13/5/1 9/5/1
f 16/5/1 13/5/1 15/5/1
f 19/5/1 18/5/1 17/5/1
f 20/5/1 18/5/1 19/5/1
f 23/4/1 22/4/1 21/4/1
f 24/4/1 22/4/1 23/4/1
f 27/6/1 26/6/1 25/6/1
f 28/6/1 26/6/1 27/6/1
f 31/7/1 30/7/1 29/7/1
f 32/7/1 30/7/1 31/7/1
f 33/4/1 32/4/1 31/4/1
f 34/4/1 32/4/1 33/4/1
f 38/7/1 36/7/1 35/7/1
f 38/8/1 37/8/1 36/8/1
f 39/8/1 37/8/1 38/8/1
f 40/8/1 37/8/1 39/8/1
f 41/7/1 38/7/1 35/7/1
f 42/5/1 39/5/1 38/5/1
f 42/7/1 38/7/1 41/7/1
f 43/7/1 40/7/1 39/7/1
f 43/5/1 39/5/1 42/5/1
f 44/7/1 40/7/1 43/7/1
f 45/5/1 43/5/1 42/5/1
f 45/5/1 44/5/1 43/5/1
f 46/5/1 44/5/1 45/5/1
f 47/5/1 45/5/1 42/5/1
f 48/7/1 46/7/1 45/7/1
f 48/5/1 45/5/1 47/5/1
f 49/7/1 48/7/1 47/7/1
f 50/7/1 46/7/1 48/7/1
f 50/7/1 48/7/1 49/7/1
f 53/2/1 52/2/1 51/2/1
f 54/2/1 52/2/1 53/2/1
f 57/6/1 56/6/1 55/6/1
f 58/6/1 56/6/1 57/6/1
f 61/8/1 60/8/1 59/8/1
f 62/8/1 60/8/1 61/8/1
f 65/7/1 64/7/1 63/7/1
f 66/7/1 64/7/1 65/7/1
f 70/7/1 68/7/1 67/7/1
f 70/8/1 69/8/1 68/8/1
f 71/8/1 69/8/1 70/8/1
f 72/8/1 69/8/1 71/8/1
f 73/7/1 70/7/1 67/7/1
f 74/5/1 71/5/1 70/5/1
f 74/7/1 70/7/1 73/7/1
f 75/7/1 72/7/1 71/7/1
f 75/5/1 71/5/1 74/5/1
f 76/7/1 72/7/1 75/7/1
f 77/5/1 75/5/1 74/5/1
f 77/5/1 76/5/1 75/5/1
f 78/5/1 76/5/1 77/5/1
f 79/5/1 77/5/1 74/5/1
f 80/7/1 78/7/1 77/7/1
f 80/5/1 77/5/1 79/5/1
f 81/7/1 80/7/1 79/7/1
f 82/7/1 78/7/1 80/7/1
f 82/7/1 80/7/1 81/7/1
f 85/6/1 84/6/1 83/6/1
f 86/6/1 84/6/1 85/6/1
f 89/5/1 88/5/1 87/5/1
f 90/5/1 88/5/1 89/5/1
f 93/2/1 92/2/1 91/2/1
f 94/2/1 92/2/1 93/2/1
f 97/6/1 96/6/1 95/6/1
f 98/6/1 96/6/1 97/6/1
f 102/5/1 100/5/1 99/5/1
f 103/4/1 101/4/1 100/4/1
f 103/5/1 100/5/1 102/5/1
f 104/4/1 101/4/1 103/4/1
f 105/4/1 101/4/1 104/4/1
f 108/4/1 107/4/1 106/4/1
f 109/4/1 107/4/1 108/4/1
f 110/4/2 111/4/2 112/4/2
f 112/4/2 111/4/2 113/4/2
f 114/5/2 115/5/2 117/5/2
f 115/4/2 116/4/2 118/4/2
f 117/5/2 115/5/2 118/5/2
f 118/4/2 116/4/2 119/4/2
f 119/4/2 116/4/2 120/4/2
f 121/6/2 122/6/2 123/6/2
f 123/6/2 122/6/2 124/6/2
f 125/2/2 126/2/2 127/2/2
f 127/2/2 126/2/2 128/2/2
f 129/5/2 130/5/2 131/5/2
f 131/5/2 130/5/2 132/5/2
f 133/8/2 134/8/2 135/8/2
f 135/8/2 134/8/2 136/8/2
f 137/7/2 138/7/2 139/7/2
f 139/7/2 138/7/2 140/7/2
f 141/6/2 142/6/2 143/6/2
f 143/6/2 142/6/2 144/6/2
f 145/7/2 146/7/2 148/7/2
f 146/8/2 147/8/2 148/8/2
f 148/8/2 147/8/2 149/8/2
f 149/8/2 147/8/2 150/8/2
f 145/7/2 148/7/2 151/7/2
f 148/5/2 149/5/2 152/5/2
f 151/7/2 148/7/2 152/7/2
f 149/7/2 150/7/2 153/7/2
f 152/5/2 149/5/2 153/5/2
f 153/7/2 150/7/2 154/7/2
f 152/5/2 153/5/2 155/5/2
f 153/5/2 154/5/2 155/5/2
f 155/5/2 154/5/2 156/5/2
f 155/7/2 156/7/2 157/7/2
f 156/5/2 154/5/2 157/5/2
f 157/5/2 154/5/2 158/5/2
f 155/7/2 157/7/2 159/7/2
f 157/7/2 158/7/2 159/7/2
f 159/7/2 158/7/2 160/7/2
f 155/7/2 159/7/2 161/7/2
f 159/5/2 160/5/2 161/5/2
f 160/7/2 158/7/2 162/7/2
f 161/5/2 160/5/2 162/5/2
f 155/7/2 161/7/2 163/7/2
f 161/7/2 162/7/2 163/7/2
f 162/7/2 158/7/2 164/7/2
f 163/7/2 162/7/2 164/7/2
f 165/6/2 166/6/2 167/6/2
f 167/6/2 166/6/2 168/6/2
f 169/2/2 170/2/2 171/2/2
f 171/2/2 170/2/2 172/2/2
f 173/7/2 174/7/2 175/7/2
f 175/7/2 174/7/2 176/7/2
f 176/7/2 174/7/2 177/7/2
f 176/5/2 177/5/2 178/5/2
f 178/5/2 177/5/2 179/5/2
f 176/5/2 178/5/2 180/5/2
f 178/1/2 179/1/2 180/1/2
f 179/5/2 177/5/2 181/5/2
f 180/1/2 179/1/2 181/1/2
f 181/5/2 177/5/2 182/5/2
f 176/5/2 180/5/2 183/5/2
f 180/5/2 181/5/2 183/5/2
f 181/7/2 182/7/2 184/7/2
f 183/5/2 181/5/2 184/5/2
f 176/5/2 183/5/2 185/5/2
f 183/7/2 184/7/2 186/7/2
f 185/5/2 183/5/2 186/5/2
f 185/7/2 186/7/2 187/7/2
f 184/7/2 182/7/2 188/7/2
f 187/7/2 186/7/2 188/7/2
f 186/7/2 184/7/2 188/7/2
f 189/7/2 190/7/2 191/7/2
f 191/7/2 190/7/2 192/7/2
f 191/4/2 192/4/2 193/4/2
f 193/4/2 192/4/2 194/4/2
f 195/6/2 196/6/2 197/6/2
f 197/6/2 196/6/2 198/6/2
f 199/5/2 200/5/2 201/5/2
f 201/5/2 200/5/2 202/5/2
f 203/4/2 204/4/2 205/4/2
f 205/4/2 204/4/2 206/4/2
f 207/5/2 208/5/2 209/5/2
f 207/5/2 209/5/2 211/5/2
f 209/4/2 210/4/2 211/4/2
f 211/4/2 210/4/2 212/4/2
f 207/5/2 211/5/2 213/5/2
f 213/5/2 211/5/2 214/5/2
f 215/4/2 216/4/2 217/4/2
f 217/4/2 216/4/2 218/4/2
f 218/4/2 216/4/2 220/4/2
f 219/4/2 220/4/2 221/4/2
f 220/4/2 216/4/2 222/4/2
f 221/4/2 220/4/2 222/4/2
f 225/5/3 224/5/3 223/5/3
f 226/5/3 224/5/3 225/5/3
f 229/5/3 228/5/3 227/5/3
f 230/5/3 228/5/3 229/5/3
f 233/6/3 232/6/3 231/6/3
f 234/6/3 232/6/3 233/6/3
f 237/6/3 233/6/3 231/6/3
f 238/6/3 232/6/3 234/6/3
f 239/6/3 237/6/3 231/6/3
f 239/6/3 238/6/3 237/6/3
f 240/6/3 232/6/3 238/6/3
f 240/6/3 238/6/3 239/6/3
f 241/7/3 236/7/3 235/7/3
f 242/7/3 236/7/3 241/7/3
f 247/6/3 246/6/3 245/6/3
f 248/6/3 246/6/3 247/6/3
f 249/7/3 244/7/3 243/7/3
f 250/7/3 244/7/3 249/7/3
f 251/6/3 247/6/3 245/6/3
f 252/6/3 246/6/3 248/6/3
f 253/6/3 251/6/3 245/6/3
f 253/6/3 252/6/3 251/6/3
f 254/6/3 246/6/3 252/6/3
f 254/6/3 252/6/3 253/6/3
f 257/5/3 256/5/3 255/5/3
f 258/5/3 256/5/3 257/5/3
f 264/2/3 260/2/3 259/2/3
f 265/2/3 260/2/3 264/2/3
f 266/5/3 257/5/3 255/5/3
f 267/5/3 257/5/3 266/5/3
f 268/2/3 264/2/3 259/2/3
f 269/2/3 260/2/3 265/2/3
f 270/2/3 268/2/3 259/2/3
f 270/2/3 269/2/3 268/2/3
f 271/2/3 260/2/3 269/2/3
f 271/2/3 269/2/3 270/2/3
f 272/5/3 257/5/3 267/5/3
f 273/5/3 256/5/3 258/5/3
f 274/5/3 272/5/3 267/5/3
f 274/5/3 273/5/3 272/5/3
f 275/5/3 256/5/3 273/5/3
f 275/5/3 273/5/3 274/5/3
f 278/2/3 277/2/3 276/2/3
f 279/2/3 277/2/3 278/2/3
f 280/5/3 266/5/3 255/5/3
f 281/5/3 274/5/3 267/5/3
f 282/2/3 278/2/3 276/2/3
f 283/2/3 277/2/3 279/2/3
f 284/7/3 262/7/3 261/7/3
f 285/4/3 263/4/3 262/4/3
f 285/7/3 262/7/3 284/7/3
f 286/4/3 263/4/3 285/4/3
f 287/2/3 283/2/3 282/2/3
f 287/2/3 282/2/3 276/2/3
f 288/2/3 277/2/3 283/2/3
f 288/2/3 283/2/3 287/2/3
f 289/5/3 281/5/3 280/5/3
f 289/5/3 274/5/3 281/5/3
f 290/5/3 256/5/3 275/5/3
f 291/5/3 280/5/3 255/5/3
f 291/5/3 290/5/3 289/5/3
f 291/5/3 289/5/3 280/5/3
f 292/5/3 256/5/3 290/5/3
f 292/5/3 290/5/3 291/5/3
f 297/4/3 294/4/3 293/4/3
f 298/4/3 294/4/3 297/4/3
f 301/5/3 296/5/3 295/5/3
f 302/5/3 296/5/3 301/5/3
f 303/4/3 300/4/3 299/4/3
f 304/4/3 300/4/3 303/4/3
f 309/4/3 306/4/3 305/4/3
f 310/4/3 306/4/3 309/4/3
f 311/4/3 308/4/3 307/4/3
f 312/4/3 308/4/3 311/4/3
f 313/4/3 308/4/3 312/4/3
f 314/4/3 308/4/3 313/4/3
f 317/4/3 316/4/3 315/4/3
f 318/4/3 316/4/3 317/4/3
f 322/5/3 320/5/3 319/5/3
f 323/7/3 321/7/3 320/7/3
f 323/5/3 320/5/3 322/5/3
f 324/7/3 321/7/3 323/7/3
f 325/7/3 321/7/3 324/7/3
f 326/5/3 322/5/3 319/5/3
f 327/7/3 323/7/3 322/7/3
f 327/5/3 322/5/3 326/5/3
f 327/7/3 324/7/3 323/7/3
f 328/7/3 324/7/3 327/7/3
f 329/7/3 321/7/3 325/7/3
f 330/5/3 326/5/3 319/5/3
f 331/7/3 328/7/3 327/7/3
f 331/5/3 326/5/3 330/5/3
f 331/7/3 329/7/3 328/7/3
f 331/7/3 327/7/3 326/7/3
f 332/7/3 321/7/3 329/7/3
f 332/7/3 329/7/3 331/7/3
f 336/5/3 334/5/3 333/5/3
f 337/7/3 335/7/3 334/7/3
f 337/5/3 334/5/3 336/5/3
f 338/5/3 336/5/3 333/5/3
f 338/7/3 337/7/3 336/7/3
f 339/7/3 337/7/3 338/7/3
f 340/5/3 338/5/3 333/5/3
f 340/5/3 339/5/3 338/5/3
f 341/7/3 337/7/3 339/7/3
f 341/5/3 339/5/3 340/5/3
f 342/7/3 335/7/3 337/7/3
f 342/7/3 337/7/3 341/7/3
f 345/4/3 344/4/3 343/4/3
f 346/4/3 344/4/3 345/4/3
f 352/4/3 348/4/3 347/4/3
f 353/4/3 350/4/3 349/4/3
f 354/4/3 350/4/3 353/4/3
f 355/4/3 352/4/3 351/4/3
f 356/4/3 348/4/3 352/4/3
f 356/4/3 352/4/3 355/4/3
f 359/4/3 358/4/3 357/4/3
f 360/4/3 358/4/3 359/4/3
f 363/4/3 362/4/3 361/4/3
f 364/4/3 362/4/3 363/4/3
f 367/1/3 366/1/3 365/1/3
f 368/1/3 366/1/3 367/1/3
f 371/4/3 370/4/3 369/4/3
f 372/4/3 370/4/3 371/4/3
f 375/4/3 374/4/3 373/4/3
f 376/4/3 374/4/3 375/4/3
f 379/8/3 378/8/3 377/8/3
f 380/8/3 378/8/3 379/8/3
f 381/8/4 382/8/4 383/8/4
f 383/8/4 382/8/4 384/8/4
f 385/4/4 386/4/4 387/4/4
f 387/4/4 386/4/4 388/4/4
f 389/4/4 390/4/4 391/4/4
f 391/4/4 390/4/4 392/4/4
f 393/8/4 394/8/4 398/8/4
f 394/7/4 395/7/4 399/7/4
f 398/8/4 394/8/4 399/8/4
f 395/5/4 396/5/4 400/5/4
f 399/7/4 395/7/4 400/7/4
f 396/7/4 397/7/4 401/7/4
f 400/5/4 396/5/4 401/5/4
f 401/7/4 397/7/4 402/7/4
f 403/8/4 404/8/4 408/8/4
f 404/7/4 405/7/4 409/7/4
f 408/8/4 404/8/4 409/8/4
f 405/5/4 406/5/4 410/5/4
f 406/7/4 407/7/4 411/7/4
f 410/5/4 406/5/4 411/5/4
f 408/7/4 409/7/4 412/7/4
f 405/5/4 410/5/4 413/5/4
f 412/7/4 409/7/4 413/7/4
f 409/7/4 405/7/4 413/7/4
f 410/7/4 411/7/4 414/7/4
f 413/5/4 410/5/4 414/5/4
f 411/7/4 407/7/4 415/7/4
f 414/7/4 411/7/4 415/7/4
f 416/7/4 417/7/4 419/7/4
f 417/4/4 418/4/4 420/4/4
f 419/7/4 417/7/4 420/7/4
f 420/4/4 418/4/4 421/4/4
f 422/5/4 423/5/4 424/5/4
f 424/5/4 423/5/4 425/5/4
f 430/7/5 427/7/5 426/7/5
f 431/7/5 427/7/5 430/7/5
f 432/7/5 429/7/5 428/7/5
f 433/7/5 429/7/5 432/7/5
f 434/8/5 431/8/5 430/8/5
f 435/8/5 431/8/5 434/8/5
f 436/8/5 434/8/5 430/8/5
f 437/8/5 431/8/5 435/8/5
f 438/8/5 436/8/5 430/8/5
f 438/8/5 437/8/5 436/8/5
f 439/8/5 431/8/5 437/8/5
f 439/8/5 437/8/5 438/8/5
f 440/8/5 433/8/5 432/8/5
f 441/7/5 429/7/5 433/7/5
f 441/8/5 433/8/5 440/8/5
f 442/7/5 429/7/5 441/7/5
f 445/6/5 444/6/5 443/6/5
f 446/6/5 444/6/5 445/6/5
f 449/7/5 448/7/5 447/7/5
f 450/7/5 448/7/5 449/7/5
f 453/7/5 452/7/5 451/7/5
f 454/7/5 452/7/5 453/7/5
f 460/5/5 456/5/5 455/5/5
f 461/5/5 456/5/5 460/5/5
f 462/5/5 458/5/5 457/5/5
f 463/5/5 458/5/5 462/5/5
f 465/4/5 461/4/5 460/4/5
f 465/4/5 460/4/5 459/4/5
f 466/4/5 461/4/5 465/4/5
f 467/4/5 464/4/5 463/4/5
f 467/4/5 463/4/5 462/4/5
f 468/4/5 464/4/5 467/4/5
f 473/4/5 470/4/5 469/4/5
f 474/4/5 470/4/5 473/4/5
f 475/4/5 472/4/5 471/4/5
f 476/4/5 472/4/5 475/4/5
f 479/5/5 478/5/5 477/5/5
f 480/5/5 478/5/5 479/5/5
f 483/5/5 482/5/5 481/5/5
f 484/5/5 482/5/5 483/5/5
f 489/6/5 486/6/5 485/6/5
f 490/6/5 486/6/5 489/6/5
f 491/6/5 488/6/5 487/6/5
f 492/6/5 488/6/5 491/6/5
f 497/2/5 494/2/5 493/2/5
f 498/2/5 494/2/5 497/2/5
f 499/2/5 496/2/5 495/2/5
f 500/2/5 496/2/5 499/2/5
f 505/6/5 502/6/5 501/6/5
f 506/6/5 502/6/5 505/6/5
f 507/6/5 504/6/5 503/6/5
f 508/6/5 504/6/5 507/6/5
f 509/7/6 510/7/6 513/7/6
f 513/7/6 510/7/6 514/7/6
f 511/7/6 512/7/6 515/7/6
f 515/7/6 512/7/6 516/7/6
f 517/7/6 518/7/6 519/7/6
f 519/7/6 518/7/6 520/7/6
f 521/7/6 522/7/6 525/7/6
f 525/7/6 522/7/6 526/7/6
f 523/7/6 524/7/6 527/7/6
f 527/7/6 524/7/6 528/7/6
f 529/4/6 530/4/6 533/4/6
f 533/4/6 530/4/6 534/4/6
f 531/4/6 532/4/6 535/4/6
f 535/4/6 532/4/6 536/4/6
f 537/5/6 538/5/6 541/5/6
f 541/5/6 538/5/6 542/5/6
f 539/5/6 540/5/6 543/5/6
f 543/5/6 540/5/6 544/5/6
f 537/5/6 541/5/6 545/5/6
f 541/1/6 542/1/6 545/1/6
f 542/5/6 538/5/6 546/5/6
f 545/1/6 542/1/6 546/1/6
f 543/1/6 544/1/6 547/1/6
f 539/5/6 543/5/6 547/5/6
f 544/5/6 540/5/6 548/5/6
f 547/1/6 544/1/6 548/1/6
f 537/5/6 545/5/6 549/5/6
f 545/5/6 546/5/6 549/5/6
f 549/5/6 546/5/6 550/5/6
f 546/5/6 538/5/6 551/5/6
f 550/5/6 546/5/6 551/5/6
f 551/5/6 538/5/6 552/5/6
f 539/5/6 547/5/6 553/5/6
f 547/5/6 548/5/6 553/5/6
f 553/5/6 548/5/6 554/5/6
f 548/5/6 540/5/6 555/5/6
f 554/5/6 548/5/6 555/5/6
f 555/5/6 540/5/6 556/5/6
f 550/5/6 551/5/6 557/5/6
f 557/5/6 551/5/6 558/5/6
f 554/5/6 555/5/6 559/5/6
f 559/5/6 555/5/6 560/5/6
f 561/4/6 562/4/6 569/4/6
f 563/4/6 564/4/6 570/4/6
f 565/4/6 566/4/6 571/4/6
f 567/4/6 568/4/6 572/4/6
f 561/4/6 569/4/6 573/4/6
f 569/4/6 570/4/6 573/4/6
f 570/4/6 564/4/6 574/4/6
f 573/4/6 570/4/6 574/4/6
f 565/4/6 571/4/6 575/4/6
f 571/4/6 572/4/6 575/4/6
f 572/4/6 568/4/6 576/4/6
f 575/4/6 572/4/6 576/4/6
f 577/4/6 578/4/6 579/4/6
f 579/4/6 578/4/6 580/4/6
f 581/5/6 582/5/6 583/5/6
f 583/5/6 582/5/6 584/5/6
f 585/6/6 586/6/6 589/6/6
f 589/6/6 586/6/6 590/6/6
f 587/6/6 588/6/6 591/6/6
f 591/6/6 588/6/6 592/6/6
f 593/2/6 594/2/6 597/2/6
f 597/2/6 594/2/6 598/2/6
f 595/2/6 596/2/6 599/2/6
f 599/2/6 596/2/6 600/2/6
f 601/6/6 602/6/6 605/6/6
f 605/6/6 602/6/6 606/6/6
f 603/6/6 604/6/6 607/6/6
f 607/6/6 604/6/6 608/6/6
f 609/5/6 610/5/6 611/5/6
f 611/5/6 610/5/6 612/5/6
