# MagicaVoxel @ Ephtracy

# group
o 

# material
mtllib zombie2.mtl
usemtl palette

# normals
vn -1 0 0
vn 1 0 0
vn 0 0 1
vn 0 0 -1
vn 0 -1 0
vn 0 1 0

# texcoords
vt 0.00976562 0.5
vt 0.146484 0.5
vt 0.560547 0.5
vt 0.958984 0.5
vt 0.994141 0.5

# verts
v -0.6 0.7 0.6
v -0.6 0.7 -0.4
v -0.6 0.9 0.6
v -0.6 0.9 -0.4
v -0.4 1.1 0.3
v -0.4 1.1 -0.5
v -0.4 1.5 -0.4
v -0.4 1.5 -0.5
v -0.4 1.6 -5.96046e-08
v -0.4 1.6 -0.4
v -0.4 1.7 -0.3
v -0.4 1.7 -0.5
v -0.4 1.8 0.0999999
v -0.4 1.8 -5.96046e-08
v -0.4 1.8 -0.2
v -0.4 1.8 -0.3
v -0.4 2 0.3
v -0.4 2 0.0999999
v -0.4 2 -0.2
v -0.3 0 0.3
v -0.3 0 -0.4
v -0.3 0.2 0.3
v -0.3 0.2 0.0999999
v -0.3 0.2 -0.4
v -0.3 0.7 0.0999999
v -0.3 0.7 -0.4
v -0.3 0.9 0.0999999
v -0.3 0.9 -0.4
v -0.3 1 0.0999999
v -0.3 1 -0.4
v -0.3 1.8 -0.2
v -0.3 1.8 -0.3
v -0.3 1.9 -0.2
v -0.3 1.9 -0.3
v -0.3 2 -0.2
v -0.3 2 -0.3
v -0.2 1.7 -0.3
v -0.2 1.7 -0.5
v -0.2 1.8 -0.3
v -0.2 1.8 -0.5
v -0.0999999 1.8 -0.3
v -0.0999999 1.8 -0.5
v -0.0999999 1.9 -0.3
v -0.0999999 1.9 -0.5
v 5.96046e-08 1.9 -0.2
v 5.96046e-08 1.9 -0.3
v 5.96046e-08 2 -0.2
v 5.96046e-08 2 -0.3
v 0.1 0 0.3
v 0.1 0 -0.4
v 0.1 0.2 0.3
v 0.1 0.2 0.0999999
v 0.1 0.2 -0.4
v 0.1 1.9 -0.3
v 0.1 1.9 -0.5
v 0.1 2 -0.3
v 0.1 2 -0.5
v 0.3 0.7 0.6
v 0.3 0.7 0.0999999
v 0.3 0.9 0.6
v 0.3 0.9 0.0999999
v -0.3 0.7 0.6
v -0.3 0.7 0.0999999
v -0.3 0.9 0.6
v -0.3 0.9 0.0999999
v -0.0999999 0 0.3
v -0.0999999 0 -0.4
v -0.0999999 0.2 0.3
v -0.0999999 0.2 0.0999999
v -0.0999999 0.2 -0.4
v -0.0999999 1.9 -0.2
v -0.0999999 1.9 -0.3
v -0.0999999 2 -0.2
v -0.0999999 2 -0.3
v 0.3 0 0.3
v 0.3 0 -0.4
v 0.3 0.2 0.3
v 0.3 0.2 0.0999999
v 0.3 0.2 -0.4
v 0.3 0.7 0.0999999
v 0.3 0.7 -0.4
v 0.3 0.9 0.0999999
v 0.3 0.9 -0.4
v 0.3 1 0.0999999
v 0.3 1 -0.4
v 0.5 1.1 0.3
v 0.5 1.1 -0.5
v 0.5 2 0.3
v 0.5 2 -0.5
v 0.6 0.7 0.6
v 0.6 0.7 -0.4
v 0.6 0.9 0.6
v 0.6 0.9 -0.4
v -0.6 0.7 0.6
v -0.6 0.9 0.6
v -0.3 0.7 0.6
v -0.3 0.9 0.6
v 0.3 0.7 0.6
v 0.3 0.9 0.6
v 0.6 0.7 0.6
v 0.6 0.9 0.6
v -0.4 1.1 0.3
v -0.4 2 0.3
v -0.3 0 0.3
v -0.3 0.2 0.3
v -0.3 1.4 0.3
v -0.3 1.7 0.3
v -0.2 1.5 0.3
v -0.2 1.6 0.3
v -0.0999999 0 0.3
v -0.0999999 0.2 0.3
v -0.0999999 1.5 0.3
v -0.0999999 1.6 0.3
v 5.96046e-08 1.4 0.3
v 5.96046e-08 1.7 0.3
v 0.1 0 0.3
v 0.1 0.2 0.3
v 0.1 1.4 0.3
v 0.1 1.7 0.3
v 0.2 1.5 0.3
v 0.2 1.6 0.3
v 0.3 0 0.3
v 0.3 0.2 0.3
v 0.3 1.5 0.3
v 0.3 1.6 0.3
v 0.4 1.4 0.3
v 0.4 1.7 0.3
v 0.5 1.1 0.3
v 0.5 2 0.3
v -0.3 0.2 0.0999999
v -0.3 0.7 0.0999999
v -0.3 0.9 0.0999999
v -0.3 1 0.0999999
v -0.0999999 0.2 0.0999999
v 0.1 0.2 0.0999999
v 0.3 0.2 0.0999999
v 0.3 0.7 0.0999999
v 0.3 0.9 0.0999999
v 0.3 1 0.0999999
v -0.4 1.8 -0.2
v -0.4 2 -0.2
v -0.3 1.8 -0.2
v -0.3 1.9 -0.2
v -0.3 2 -0.2
v -0.0999999 1.9 -0.2
v -0.0999999 2 -0.2
v 5.96046e-08 1.9 -0.2
v 5.96046e-08 2 -0.2
v -0.4 1.7 -0.3
v -0.4 1.8 -0.3
v -0.3 1.8 -0.3
v -0.3 1.9 -0.3
v -0.3 2 -0.3
v -0.2 1.7 -0.3
v -0.2 1.8 -0.3
v -0.2 1.9 -0.3
v -0.0999999 1.8 -0.3
v -0.0999999 1.9 -0.3
v -0.0999999 2 -0.3
v 5.96046e-08 1.9 -0.3
v 5.96046e-08 2 -0.3
v 0.1 1.9 -0.3
v 0.1 2 -0.3
v -0.6 0.7 -0.4
v -0.6 0.9 -0.4
v -0.3 0 -0.4
v -0.3 0.2 -0.4
v -0.3 0.7 -0.4
v -0.3 0.9 -0.4
v -0.3 1 -0.4
v -0.0999999 0 -0.4
v -0.0999999 0.2 -0.4
v 0.1 0 -0.4
v 0.1 0.2 -0.4
v 0.3 0 -0.4
v 0.3 0.2 -0.4
v 0.3 0.7 -0.4
v 0.3 0.9 -0.4
v 0.3 1 -0.4
v 0.6 0.7 -0.4
v 0.6 0.9 -0.4
v -0.4 1.1 -0.5
v -0.4 1.5 -0.5
v -0.4 1.7 -0.5
v -0.3 1.5 -0.5
v -0.3 1.6 -0.5
v -0.2 1.6 -0.5
v -0.2 1.7 -0.5
v -0.2 1.8 -0.5
v -0.0999999 1.8 -0.5
v -0.0999999 1.9 -0.5
v 5.96046e-08 1.7 -0.5
v 5.96046e-08 1.8 -0.5
v 0.1 1.9 -0.5
v 0.1 2 -0.5
v 0.2 1.8 -0.5
v 0.2 2 -0.5
v 0.5 1.1 -0.5
v 0.5 2 -0.5
v -0.3 0 0.3
v -0.0999999 0 0.3
v 0.1 0 0.3
v 0.3 0 0.3
v -0.3 0 -0.4
v -0.0999999 0 -0.4
v 0.1 0 -0.4
v 0.3 0 -0.4
v -0.0999999 0.2 0.0999999
v 0.1 0.2 0.0999999
v -0.0999999 0.2 -0.4
v 0.1 0.2 -0.4
v -0.6 0.7 0.6
v -0.3 0.7 0.6
v 0.3 0.7 0.6
v 0.6 0.7 0.6
v -0.3 0.7 0.0999999
v 0.3 0.7 0.0999999
v -0.6 0.7 -0.4
v -0.3 0.7 -0.4
v 0.3 0.7 -0.4
v 0.6 0.7 -0.4
v -0.4 1.1 0.3
v 0.5 1.1 0.3
v -0.4 1.1 -0.5
v 0.5 1.1 -0.5
v -0.3 0.2 0.3
v -0.0999999 0.2 0.3
v 0.1 0.2 0.3
v 0.3 0.2 0.3
v -0.3 0.2 0.0999999
v -0.0999999 0.2 0.0999999
v 0.1 0.2 0.0999999
v 0.3 0.2 0.0999999
v -0.6 0.9 0.6
v -0.3 0.9 0.6
v 0.3 0.9 0.6
v 0.6 0.9 0.6
v -0.5 0.9 0.3
v -0.4 0.9 0.3
v -0.5 0.9 0.0999999
v -0.4 0.9 0.0999999
v -0.3 0.9 0.0999999
v 0.3 0.9 0.0999999
v -0.6 0.9 -0.4
v -0.3 0.9 -0.4
v 0.3 0.9 -0.4
v 0.6 0.9 -0.4
v -0.3 1 0.0999999
v 0.3 1 0.0999999
v -0.3 1 -0.4
v 0.3 1 -0.4
v -0.4 1.7 -0.3
v -0.2 1.7 -0.3
v -0.4 1.7 -0.5
v -0.2 1.7 -0.5
v -0.4 1.8 -0.2
v -0.3 1.8 -0.2
v -0.4 1.8 -0.3
v -0.3 1.8 -0.3
v -0.2 1.8 -0.3
v -0.0999999 1.8 -0.3
v -0.2 1.8 -0.5
v -0.0999999 1.8 -0.5
v -0.0999999 1.9 -0.2
v 5.96046e-08 1.9 -0.2
v -0.0999999 1.9 -0.3
v 5.96046e-08 1.9 -0.3
v 0.1 1.9 -0.3
v -0.0999999 1.9 -0.5
v 0.1 1.9 -0.5
v -0.4 2 0.3
v 0.5 2 0.3
v -0.4 2 0.0999999
v 0.1 2 0.0999999
v -0.3 2 -5.96046e-08
v -0.0999999 2 -5.96046e-08
v -0.0999999 2 -0.1
v 5.96046e-08 2 -0.1
v -0.4 2 -0.2
v -0.3 2 -0.2
v -0.0999999 2 -0.2
v 5.96046e-08 2 -0.2
v -0.3 2 -0.3
v -0.0999999 2 -0.3
v 5.96046e-08 2 -0.3
v 0.1 2 -0.3
v 0.2 2 -0.3
v 0.1 2 -0.5
v 0.2 2 -0.5
v 0.5 2 -0.5

# faces
f 3/3/1 2/3/1 1/3/1
f 4/3/1 2/3/1 3/3/1
f 7/3/1 6/3/1 5/3/1
f 8/3/1 6/3/1 7/3/1
f 9/3/1 7/3/1 5/3/1
f 10/2/1 8/2/1 7/2/1
f 10/3/1 7/3/1 9/3/1
f 11/2/1 10/2/1 9/2/1
f 12/2/1 8/2/1 10/2/1
f 12/2/1 10/2/1 11/2/1
f 13/3/1 9/3/1 5/3/1
f 14/2/1 11/2/1 9/2/1
f 14/3/1 9/3/1 13/3/1
f 15/2/1 11/2/1 14/2/1
f 16/2/1 11/2/1 15/2/1
f 17/3/1 13/3/1 5/3/1
f 18/2/1 14/2/1 13/2/1
f 18/3/1 13/3/1 17/3/1
f 18/2/1 15/2/1 14/2/1
f 19/2/1 15/2/1 18/2/1
f 22/5/1 21/5/1 20/5/1
f 23/5/1 21/5/1 22/5/1
f 24/5/1 21/5/1 23/5/1
f 25/3/1 24/3/1 23/3/1
f 26/3/1 24/3/1 25/3/1
f 29/3/1 28/3/1 27/3/1
f 30/3/1 28/3/1 29/3/1
f 33/2/1 32/2/1 31/2/1
f 34/2/1 32/2/1 33/2/1
f 35/1/1 34/1/1 33/1/1
f 36/1/1 34/1/1 35/1/1
f 39/2/1 38/2/1 37/2/1
f 40/2/1 38/2/1 39/2/1
f 43/2/1 42/2/1 41/2/1
f 44/2/1 42/2/1 43/2/1
f 47/2/1 46/2/1 45/2/1
f 48/2/1 46/2/1 47/2/1
f 51/5/1 50/5/1 49/5/1
f 52/5/1 50/5/1 51/5/1
f 53/5/1 50/5/1 52/5/1
f 56/2/1 55/2/1 54/2/1
f 57/2/1 55/2/1 56/2/1
f 60/3/1 59/3/1 58/3/1
f 61/3/1 59/3/1 60/3/1
f 62/3/2 63/3/2 64/3/2
f 64/3/2 63/3/2 65/3/2
f 66/5/2 67/5/2 68/5/2
f 68/5/2 67/5/2 69/5/2
f 69/5/2 67/5/2 70/5/2
f 71/1/2 72/1/2 73/1/2
f 73/1/2 72/1/2 74/1/2
f 75/5/2 76/5/2 77/5/2
f 77/5/2 76/5/2 78/5/2
f 78/5/2 76/5/2 79/5/2
f 78/3/2 79/3/2 80/3/2
f 80/3/2 79/3/2 81/3/2
f 82/3/2 83/3/2 84/3/2
f 84/3/2 83/3/2 85/3/2
f 86/3/2 87/3/2 88/3/2
f 88/3/2 87/3/2 89/3/2
f 90/3/2 91/3/2 92/3/2
f 92/3/2 91/3/2 93/3/2
f 96/3/3 95/3/3 94/3/3
f 97/3/3 95/3/3 96/3/3
f 100/3/3 99/3/3 98/3/3
f 101/3/3 99/3/3 100/3/3
f 106/3/3 103/3/3 102/3/3
f 107/3/3 103/3/3 106/3/3
f 108/4/3 107/4/3 106/4/3
f 109/4/3 107/4/3 108/4/3
f 110/5/3 105/5/3 104/5/3
f 111/5/3 105/5/3 110/5/3
f 112/4/3 108/4/3 106/4/3
f 112/5/3 109/5/3 108/5/3
f 113/4/3 107/4/3 109/4/3
f 113/5/3 109/5/3 112/5/3
f 114/4/3 112/4/3 106/4/3
f 114/3/3 106/3/3 102/3/3
f 114/4/3 113/4/3 112/4/3
f 115/4/3 107/4/3 113/4/3
f 115/4/3 113/4/3 114/4/3
f 115/3/3 103/3/3 107/3/3
f 118/3/3 114/3/3 102/3/3
f 118/3/3 115/3/3 114/3/3
f 119/3/3 103/3/3 115/3/3
f 119/3/3 115/3/3 118/3/3
f 120/4/3 119/4/3 118/4/3
f 121/4/3 119/4/3 120/4/3
f 122/5/3 117/5/3 116/5/3
f 123/5/3 117/5/3 122/5/3
f 124/4/3 120/4/3 118/4/3
f 124/5/3 121/5/3 120/5/3
f 125/4/3 119/4/3 121/4/3
f 125/5/3 121/5/3 124/5/3
f 126/4/3 124/4/3 118/4/3
f 126/3/3 118/3/3 102/3/3
f 126/4/3 125/4/3 124/4/3
f 127/4/3 119/4/3 125/4/3
f 127/4/3 125/4/3 126/4/3
f 127/3/3 103/3/3 119/3/3
f 128/3/3 126/3/3 102/3/3
f 128/3/3 127/3/3 126/3/3
f 129/3/3 103/3/3 127/3/3
f 129/3/3 127/3/3 128/3/3
f 134/3/3 131/3/3 130/3/3
f 134/3/3 133/3/3 132/3/3
f 134/3/3 132/3/3 131/3/3
f 135/3/3 133/3/3 134/3/3
f 136/3/3 133/3/3 135/3/3
f 137/3/3 133/3/3 136/3/3
f 138/3/3 133/3/3 137/3/3
f 139/3/3 133/3/3 138/3/3
f 140/2/4 141/2/4 142/2/4
f 142/2/4 141/2/4 143/2/4
f 143/2/4 141/2/4 144/2/4
f 145/1/4 146/1/4 147/1/4
f 147/1/4 146/1/4 148/1/4
f 149/2/4 150/2/4 151/2/4
f 149/2/4 151/2/4 154/2/4
f 151/2/4 152/2/4 154/2/4
f 154/2/4 152/2/4 155/2/4
f 152/1/4 153/1/4 156/1/4
f 155/2/4 152/2/4 156/2/4
f 155/1/4 156/1/4 157/1/4
f 156/1/4 153/1/4 158/1/4
f 157/1/4 156/1/4 158/1/4
f 158/1/4 153/1/4 159/1/4
f 160/2/4 161/2/4 162/2/4
f 162/2/4 161/2/4 163/2/4
f 164/3/4 165/3/4 168/3/4
f 168/3/4 165/3/4 169/3/4
f 166/5/4 167/5/4 171/5/4
f 169/3/4 170/3/4 172/3/4
f 171/5/4 167/5/4 172/5/4
f 167/3/4 168/3/4 172/3/4
f 168/3/4 169/3/4 172/3/4
f 172/3/4 170/3/4 174/3/4
f 173/5/4 174/5/4 175/5/4
f 174/3/4 170/3/4 176/3/4
f 175/5/4 174/5/4 176/5/4
f 176/3/4 170/3/4 177/3/4
f 177/3/4 170/3/4 178/3/4
f 178/3/4 170/3/4 179/3/4
f 177/3/4 178/3/4 180/3/4
f 180/3/4 178/3/4 181/3/4
f 182/3/4 183/3/4 185/3/4
f 183/2/4 184/2/4 185/2/4
f 185/2/4 184/2/4 186/2/4
f 185/3/4 186/3/4 187/3/4
f 186/2/4 184/2/4 187/2/4
f 187/2/4 184/2/4 188/2/4
f 188/2/4 189/2/4 190/2/4
f 187/3/4 188/3/4 192/3/4
f 190/2/4 191/2/4 192/2/4
f 188/2/4 190/2/4 192/2/4
f 192/2/4 191/2/4 193/2/4
f 193/2/4 191/2/4 194/2/4
f 192/3/4 193/3/4 196/3/4
f 194/2/4 195/2/4 196/2/4
f 193/2/4 194/2/4 196/2/4
f 196/2/4 195/2/4 197/2/4
f 182/3/4 185/3/4 198/3/4
f 185/3/4 187/3/4 198/3/4
f 196/3/4 197/3/4 198/3/4
f 192/3/4 196/3/4 198/3/4
f 187/3/4 192/3/4 198/3/4
f 198/3/4 197/3/4 199/3/4
f 204/5/5 201/5/5 200/5/5
f 205/5/5 201/5/5 204/5/5
f 206/5/5 203/5/5 202/5/5
f 207/5/5 203/5/5 206/5/5
f 210/3/5 209/3/5 208/3/5
f 211/3/5 209/3/5 210/3/5
f 216/3/5 213/3/5 212/3/5
f 217/3/5 215/3/5 214/3/5
f 218/3/5 216/3/5 212/3/5
f 219/3/5 216/3/5 218/3/5
f 220/3/5 215/3/5 217/3/5
f 221/3/5 215/3/5 220/3/5
f 224/3/5 223/3/5 222/3/5
f 225/3/5 223/3/5 224/3/5
f 226/5/6 227/5/6 230/5/6
f 230/5/6 227/5/6 231/5/6
f 228/5/6 229/5/6 232/5/6
f 232/5/6 229/5/6 233/5/6
f 234/3/6 235/3/6 238/3/6
f 238/3/6 235/3/6 239/3/6
f 234/3/6 238/3/6 240/3/6
f 238/2/6 239/2/6 240/2/6
f 239/3/6 235/3/6 241/3/6
f 240/2/6 239/2/6 241/2/6
f 241/3/6 235/3/6 242/3/6
f 236/3/6 237/3/6 243/3/6
f 241/3/6 242/3/6 244/3/6
f 234/3/6 240/3/6 244/3/6
f 240/3/6 241/3/6 244/3/6
f 244/3/6 242/3/6 245/3/6
f 243/3/6 237/3/6 246/3/6
f 246/3/6 237/3/6 247/3/6
f 248/3/6 249/3/6 250/3/6
f 250/3/6 249/3/6 251/3/6
f 252/2/6 253/2/6 254/2/6
f 254/2/6 253/2/6 255/2/6
f 256/2/6 257/2/6 258/2/6
f 258/2/6 257/2/6 259/2/6
f 260/2/6 261/2/6 262/2/6
f 262/2/6 261/2/6 263/2/6
f 264/1/6 265/1/6 266/1/6
f 266/1/6 265/1/6 267/1/6
f 266/2/6 267/2/6 269/2/6
f 267/2/6 268/2/6 269/2/6
f 269/2/6 268/2/6 270/2/6
f 271/3/6 272/3/6 273/3/6
f 273/3/6 272/3/6 274/3/6
f 273/2/6 274/2/6 275/2/6
f 275/2/6 274/2/6 276/2/6
f 275/1/6 276/1/6 277/1/6
f 276/2/6 274/2/6 277/2/6
f 277/2/6 274/2/6 278/2/6
f 273/2/6 275/2/6 279/2/6
f 275/1/6 277/1/6 280/1/6
f 279/2/6 275/2/6 280/2/6
f 277/1/6 278/1/6 280/1/6
f 280/1/6 278/1/6 281/1/6
f 278/2/6 274/2/6 282/2/6
f 281/1/6 278/1/6 282/1/6
f 280/1/6 281/1/6 283/1/6
f 283/1/6 281/1/6 284/1/6
f 282/2/6 274/2/6 285/2/6
f 274/3/6 272/3/6 286/3/6
f 285/2/6 274/2/6 286/2/6
f 286/3/6 272/3/6 287/3/6
f 286/2/6 287/2/6 288/2/6
f 287/3/6 272/3/6 289/3/6
f 288/2/6 287/2/6 289/2/6
f 289/3/6 272/3/6 290/3/6
